<?xml version="1.0" encoding="UTF-8" standalone="no"?>
<!-- Created with Inkscape (http://www.inkscape.org/) -->

<svg
   xmlns:dc="http://purl.org/dc/elements/1.1/"
   xmlns:cc="http://creativecommons.org/ns#"
   xmlns:rdf="http://www.w3.org/1999/02/22-rdf-syntax-ns#"
   xmlns:svg="http://www.w3.org/2000/svg"
   xmlns="http://www.w3.org/2000/svg"
   xmlns:sodipodi="http://sodipodi.sourceforge.net/DTD/sodipodi-0.dtd"
   xmlns:inkscape="http://www.inkscape.org/namespaces/inkscape"
   width="21.04347mm"
   height="7.8422399mm"
   viewBox="0 0 21.04347 7.8422399"
   version="1.1"
   id="svg8"
   inkscape:version="0.92.1 unknown"
   sodipodi:docname="logo.svg">
  <defs
     id="defs2" />
  <sodipodi:namedview
     id="base"
     pagecolor="#ffffff"
     bordercolor="#666666"
     borderopacity="1.0"
     inkscape:pageopacity="0.0"
     inkscape:pageshadow="2"
     inkscape:zoom="3.959798"
     inkscape:cx="29.878491"
     inkscape:cy="12.47799"
     inkscape:document-units="mm"
     inkscape:current-layer="layer1"
     showgrid="false"
     showborder="false"
     fit-margin-top="0"
     fit-margin-left="0"
     fit-margin-right="0"
     fit-margin-bottom="0"
     inkscape:window-width="1366"
     inkscape:window-height="724"
     inkscape:window-x="0"
     inkscape:window-y="25"
     inkscape:window-maximized="1" />
  <metadata
     id="metadata5">
    <rdf:RDF>
      <cc:Work
         rdf:about="">
        <dc:format>image/svg+xml</dc:format>
        <dc:type
           rdf:resource="http://purl.org/dc/dcmitype/StillImage" />
        <dc:title></dc:title>
      </cc:Work>
    </rdf:RDF>
  </metadata>
  <g
     inkscape:label="Layer 1"
     inkscape:groupmode="layer"
     id="layer1"
     transform="translate(-60.65938,-131.33073)">
    <path
       style="font-style:normal;font-variant:normal;font-weight:800;font-stretch:normal;font-size:medium;line-height:125%;font-family:Dosis;-inkscape-font-specification:'Dosis Ultra-Bold';letter-spacing:0px;word-spacing:0px;fill:#000000;fill-opacity:1;stroke:none;stroke-width:0.26458332px;stroke-linecap:butt;stroke-linejoin:miter;stroke-opacity:1"
       inkscape:connector-curvature="0"
       id="path4493"
       d="m 65.400713,134.59039 v 3.96875 c 0,0.33867 0.41275,0.508 0.8255,0.508 0.41275,0 0.8255,-0.16933 0.8255,-0.508 v -6.40291 c 0,-0.60325 -0.402167,-0.8255 -0.8255,-0.8255 -0.592667,0 -0.846667,0.0635 -1.280583,0.8255 l -1.090084,1.905 -1.090083,-1.905 c -0.433917,-0.762 -0.687917,-0.8255 -1.280583,-0.8255 -0.41275,0 -0.8255,0.22225 -0.8255,0.8255 v 6.40291 c 0,0.33867 0.41275,0.508 0.8255,0.508 0.41275,0 0.8255,-0.16933 0.8255,-0.508 v -4.07458 l 1.005416,1.8415 c 0.127,0.24341 0.328084,0.30691 0.518584,0.30691 0.201083,0 0.41275,-0.0741 0.550333,-0.30691 z" />
    <path
       style="font-style:normal;font-variant:normal;font-weight:800;font-stretch:normal;font-size:medium;line-height:125%;font-family:Dosis;-inkscape-font-specification:'Dosis Ultra-Bold';letter-spacing:0px;word-spacing:0px;fill:#000000;fill-opacity:1;stroke:none;stroke-width:0.26458332px;stroke-linecap:butt;stroke-linejoin:miter;stroke-opacity:1"
       inkscape:connector-curvature="0"
       id="path4495"
       d="m 70.352557,133.96598 c -1.354667,0 -2.434167,1.00541 -2.434167,2.19074 v 0.77259 c 0,1.34408 1.11125,2.24366 2.677583,2.24366 1.195917,0 6.278221,-0.0158 7.180255,-0.0338 0.253943,-0.005 0.278881,-1.18738 -0.102119,-1.18738 -0.34925,0 -6.379636,-0.0594 -7.035802,-0.0594 -0.645584,0 -1.0795,-0.34925 -1.0795,-0.86783 v -0.0635 h 2.042583 c 0.486833,0 1.026583,-0.0423 1.026583,-0.98425 0,-1.19592 -1.058333,-2.01083 -2.275416,-2.01083 z m -0.79375,2.07433 v -0.254 c 0,-0.42333 0.381,-0.635 0.762,-0.635 0.391583,0 0.772583,0.21167 0.772583,0.635 0,0.20108 -0.07408,0.254 -0.22225,0.254 z"
       sodipodi:nodetypes="sssssssscsssssssss" />
    <path
       style="font-style:normal;font-variant:normal;font-weight:800;font-stretch:normal;font-size:medium;line-height:125%;font-family:Dosis;-inkscape-font-specification:'Dosis Ultra-Bold';letter-spacing:0px;word-spacing:0px;fill:#000000;fill-opacity:1;stroke:none;stroke-width:0.26458332px;stroke-linecap:butt;stroke-linejoin:miter;stroke-opacity:1"
       inkscape:connector-curvature="0"
       id="path4497"
       d="m 75.225199,131.82782 c -0.783167,0 -5.705946,0.0106 -6.603897,0.0449 -0.368292,0.0141 -0.394152,1.24923 -0.03432,1.24923 0.28575,0 5.749216,0.0182 6.617049,0.0182 0.60325,0 0.79375,0.42333 0.79375,0.78316 v 0.10584 h -0.381 c -1.4605,0 -2.4765,0.34925 -2.4765,1.59808 0,0.96309 0.624417,1.40758 1.354667,1.40758 0.740833,0 1.227667,-0.40216 1.608667,-0.84666 v 0.23283 c 0,0.28575 0.3175,0.508 0.73025,0.508 0.465666,0 0.804333,-0.22225 0.804333,-0.508 v -2.51883 c 0,-1.06892 -0.677333,-2.07433 -2.412999,-2.07433 z m 0.772583,3.03741 c 0,0.53975 -0.465666,0.97367 -0.79375,0.97367 -0.243416,0 -0.41275,-0.13758 -0.41275,-0.4445 0,-0.508 0.560917,-0.5715 1.164167,-0.5715 h 0.04233 z"
       sodipodi:nodetypes="csssscssscsssssccssccc" />
    <path
       style="font-style:normal;font-variant:normal;font-weight:800;font-stretch:normal;font-size:medium;line-height:125%;font-family:Dosis;-inkscape-font-specification:'Dosis Ultra-Bold';letter-spacing:0px;word-spacing:0px;fill:#000000;fill-opacity:1;stroke:none;stroke-width:0.26458332px;stroke-linecap:butt;stroke-linejoin:miter;stroke-opacity:1"
       inkscape:connector-curvature="0"
       id="path4499"
       d="m 80.104767,135.19364 h 1.195917 c 0.264583,0 0.402167,-0.28575 0.402167,-0.58208 0,-0.28575 -0.137584,-0.58208 -0.402167,-0.58208 h -1.195917 v -1.69334 c 0,-0.29633 -0.41275,-0.49741 -0.8255,-0.49741 -0.381,0 -0.814916,0.20108 -0.814916,0.49741 v 4.94242 c 0,1.24883 0.73025,1.78858 2.074333,1.78858 h 0.455083 c 0.47625,0 0.6985,-0.33866 0.6985,-0.68792 0,-0.33866 -0.22225,-0.68791 -0.6985,-0.68791 h -0.455083 c -0.328083,0 -0.433917,-0.10584 -0.433917,-0.41275 z" />
  </g>
</svg>
